<svg xmlns="http://www.w3.org/2000/svg" xmlns:xlink="http://www.w3.org/1999/xlink" width="1144.451" height="683.238" viewBox="0 0 1144.451 683.238">
  <defs>
    <linearGradient id="linear-gradient" x1="0.5" x2="0.598" y2="0.452" gradientUnits="objectBoundingBox">
      <stop offset="0" stop-color="#fbc737"/>
      <stop offset="1" stop-color="#ffb431"/>
    </linearGradient>
    <clipPath id="clip-path">
      <rect id="Rectangle_297" data-name="Rectangle 297" width="272" height="262" fill="#fff" stroke="#707070" stroke-width="1"/>
    </clipPath>
  </defs>
  <g id="header-bg" transform="translate(1 1.721)">
    <path id="Path_1801" data-name="Path 1801" d="M-255.478,185.518s75.8-152.695,365.15-87.069c0,0,183.455,41.762,304.267-50.711,0,0,107.388-61.152,158.1-193.9S758.69-366.812,888.451-372.778V-497.721l-1143.705,2.4-.206,679.386Z" transform="translate(255 496)" fill="url(#linear-gradient)"/>
    <g id="Mask_Group_1" data-name="Mask Group 1" transform="translate(-1)" clip-path="url(#clip-path)">
      <path id="Path_3110" data-name="Path 3110" d="M706.828,185.45c-2.147,11.915-7.567,22.877-14.04,33.026-6.542,10.244-14.087,19.819-20.894,29.871-7.308,10.818-13.372,22.184-16.619,34.89-3.582,14.062-4.657,28.679-8.6,42.672a83.74,83.74,0,0,1-16.1,30.971c-14.614,17.622-35.722,29.085-57.547,35.174-24.381,6.782-51.723,7.832-76.032.167a94.9,94.9,0,0,1-33.79-19.318c-9.743-8.478-18.2-18.34-26.768-27.963-9.027-10.149-18.435-19.867-29.158-28.3-.022,0-.022,0-.047-.022-3.676-2.891-7.5-5.612-11.391-8.191-1.217-.549-2.459-1.05-3.676-1.551-22.446-9.194-46.612-14.282-68.008-26.005a91.111,91.111,0,0,1-27.175-22.089,90.067,90.067,0,0,1-16.4-31.57,88.932,88.932,0,0,1,7.784-68.532,96.142,96.142,0,0,1,52.679-43.747c28.367-9.456,58.789-5.35,88.019-8.645a213.036,213.036,0,0,0,43.961-9.743c13.611-4.562,26.459-10.723,39.209-17.24,23.95-12.252,48.712-25.195,76.389-24C614.7,56.431,639.2,68.56,659.071,84.942c19.986,16.452,37.251,38.185,44.989,63.162C707.784,160.161,709.1,172.987,706.828,185.45Z" transform="translate(-368.129 422.318) rotate(-66)" fill="#eeefef"/>
    </g>
  </g>
</svg>
