<svg xmlns="http://www.w3.org/2000/svg" width="101.288" height="131.199" viewBox="0 0 101.288 131.199">
  <g id="Layer_1" transform="translate(1190.724 118.525)">
    <g id="_573217592" data-name=" 573217592" transform="translate(-1190.724 -118.525)">
      <path id="Path_171" data-name="Path 171" d="M-1184.252,775.826a1.924,1.924,0,0,1-2.171-2.046c0-1.294.877-2.088,2.63-2.422a17.886,17.886,0,0,0,3.465-1.044V771.9a3.558,3.558,0,0,1-3.883,3.883Zm1-10.772c1.8,0,2.714.5,2.8,1.461,0,.96-.961,1.5-2.8,1.753-4.384.418-7.39,1.545-7.474,5.678,0,3.841,2.881,5.762,7.015,5.428,4.676-.334,7.556-2.463,7.556-7.223v-5.887c-.083-3.215-2.5-4.76-7.306-4.76q-6.012,0-6.764,4.76h4.342C-1185.672,765.43-1184.8,765.054-1183.251,765.054Zm15.281,10.772a1.923,1.923,0,0,1-2.171-2.046c0-1.294.876-2.088,2.63-2.422a17.889,17.889,0,0,0,3.466-1.044V771.9a3.557,3.557,0,0,1-3.883,3.883Zm1-10.772c1.8,0,2.714.5,2.8,1.461,0,.96-.961,1.5-2.8,1.753-4.384.418-7.39,1.545-7.474,5.678,0,3.841,2.881,5.762,7.014,5.428,4.676-.334,7.557-2.463,7.557-7.223v-5.887c-.083-3.215-2.505-4.76-7.307-4.76q-6.012,0-6.763,4.76h4.342C-1169.389,765.43-1168.513,765.054-1166.968,765.054Zm13.527,18.621a1.924,1.924,0,0,1-2.171,2.171h-2.171V769.312c.209-5.177,2.922-7.724,8.1-7.724,5.344,0,8.059,2.923,8.059,8.726,0,5.887-2.3,8.935-6.889,9.1a5.322,5.322,0,0,1-4.885-2.672v6.972Zm3.716-8.183c2.338,0,3.549-1.67,3.674-5.01,0-3.507-1.253-5.219-3.716-5.219-2.5,0-3.674,1.753-3.632,5.219.125,3.34,1.336,5.01,3.715,5.01Zm17.87-13.987c-5.219,0-7.849,2.964-7.849,8.977,0,5.97,2.631,8.976,7.849,8.976s7.891-3.006,7.891-8.976C-1123.964,764.469-1126.595,761.505-1131.855,761.505Zm0,3.841c2.213,0,3.34,1.67,3.34,5.052-.042,3.423-1.127,5.219-3.382,5.219-2.212,0-3.382-1.712-3.382-5.052,0-3.423,1.127-5.177,3.424-5.177Zm17.7-3.841c-5.219,0-7.849,2.964-7.849,8.977,0,5.97,2.63,8.976,7.849,8.976s7.891-3.006,7.891-8.976C-1106.262,764.469-1108.892,761.505-1114.153,761.505Zm0,3.841c2.213,0,3.34,1.67,3.34,5.052-.042,3.423-1.127,5.219-3.382,5.219-2.213,0-3.382-1.712-3.382-5.052,0-3.423,1.127-5.177,3.424-5.177Zm24.716,13.736V768.895c.042-4.927-2.38-7.39-7.306-7.39s-7.432,2.463-7.432,7.39v10.187h4.426V768.018c.042-1.8,1-2.672,2.923-2.672s2.922.877,3.006,2.672v8.893c0,1.378.71,2.046,2.171,2.171Z" transform="translate(1190.724 -654.647)" fill="#00547f"/>
      <g id="Group_313" data-name="Group 313" transform="translate(7.18 20.599)">
        <path id="Path_172" data-name="Path 172" d="M-1123.078,51.707a5.977,5.977,0,0,0-7.932,2.756,5.977,5.977,0,0,0,2.756,7.933,5.977,5.977,0,0,0,7.933-2.756A5.978,5.978,0,0,0-1123.078,51.707Z" transform="translate(1131.596 -51.121)" fill="#00547f"/>
        <path id="Path_173" data-name="Path 173" d="M-1038.416,115.119c-1.378-2.756-1.629-5.428-.543-7.682a5.918,5.918,0,0,1,1-1.5h0a.5.5,0,0,1,.167-.167l.042-.042a3.4,3.4,0,0,1,.376-.334c.084-.084.167-.125.209-.209,2.171-1.837,9.1-6.137,23.339-2.171a1.349,1.349,0,0,0,.96-2.505c-.042,0-.083-.042-.126-.042-1.252-.626-2.547-1.127-3.8-1.628a47.813,47.813,0,0,0-6.889-1.879c-8.391-1.5-15.49.334-17.869,5.3-1.8,3.758-.543,8.475,2.964,13.026.083.125.292,0,.209-.125Z" transform="translate(1053.198 -90.944)" fill="#00547f"/>
      </g>
      <g id="Group_314" data-name="Group 314" transform="translate(35.609 60.185)">
        <path id="Path_174" data-name="Path 174" d="M-830.164,606.119a5.931,5.931,0,0,0,6.346,5.469,5.931,5.931,0,0,0,5.469-6.346,5.931,5.931,0,0,0-6.346-5.469A5.931,5.931,0,0,0-830.164,606.119Z" transform="translate(838.352 -572.723)" fill="#00547f"/>
        <path id="Path_175" data-name="Path 175" d="M-872,393.281c-1.712,2.547-3.883,4.133-6.388,4.342a6.512,6.512,0,0,1-1.8-.125h0a.732.732,0,0,1-.209-.042h-.083a4.28,4.28,0,0,0-.5-.125,2.694,2.694,0,0,0-.292-.084c-2.672-.96-9.853-4.8-13.569-19.122a1.338,1.338,0,0,0-2.63.418v.125c.083,1.42.292,2.756.5,4.092a47.889,47.889,0,0,0,1.8,6.931c2.881,7.975,8.058,13.235,13.527,12.859,4.134-.292,7.6-3.8,9.812-9.06.042-.125-.125-.251-.209-.125Z" transform="translate(897.469 -377.128)" fill="#00547f"/>
      </g>
      <g id="Group_315" data-name="Group 315" transform="translate(66.715 22.22)">
        <path id="Path_176" data-name="Path 176" d="M-496.247,75.292a5.87,5.87,0,0,0,1.545-8.225,5.87,5.87,0,0,0-8.225-1.545,5.87,5.87,0,0,0-1.545,8.225A5.87,5.87,0,0,0-496.247,75.292Z" transform="translate(522.01 -64.47)" fill="#00547f"/>
        <path id="Path_177" data-name="Path 177" d="M-639.117,98.328c3.048.209,5.511,1.294,6.93,3.34a7.348,7.348,0,0,1,.793,1.628h0a1.773,1.773,0,0,1,.083.209c0,.042,0,.042.042.084a4.345,4.345,0,0,1,.125.5c0,.083.042.209.042.292.5,2.8.751,10.939-9.77,21.293a1.344,1.344,0,0,0,1.67,2.088c.042-.042.084-.042.084-.084,1.169-.793,2.255-1.628,3.3-2.463a47.082,47.082,0,0,0,5.094-5.01c5.469-6.513,7.432-13.611,4.342-18.12-2.338-3.424-7.1-4.718-12.734-3.966a.125.125,0,1,0,0,.251Z" transform="translate(641.291 -93.852)" fill="#00547f"/>
      </g>
      <g id="Group_316" data-name="Group 316" transform="translate(7.256 42.75)">
        <path id="Path_178" data-name="Path 178" d="M-1128.371,417.958a5.87,5.87,0,0,0-1.545,8.225,5.87,5.87,0,0,0,8.225,1.545,5.87,5.87,0,0,0,1.545-8.225A5.869,5.869,0,0,0-1128.371,417.958Z" transform="translate(1130.968 -394.64)" fill="#ffb431"/>
        <path id="Path_179" data-name="Path 179" d="M-1018.388,263.2c-3.048-.209-5.511-1.294-6.931-3.34a7.349,7.349,0,0,1-.793-1.628h0a1.826,1.826,0,0,1-.083-.209c0-.042,0-.042-.042-.084a4.371,4.371,0,0,1-.125-.5c0-.083-.042-.209-.042-.292-.5-2.8-.751-10.939,9.77-21.293a1.344,1.344,0,0,0-1.67-2.088c-.042.042-.083.042-.083.083-1.169.793-2.255,1.628-3.3,2.463a47.072,47.072,0,0,0-5.094,5.01c-5.469,6.513-7.432,13.611-4.342,18.12,2.338,3.424,7.1,4.718,12.734,3.966a.125.125,0,0,0,0-.25Z" transform="translate(1044.533 -233.539)" fill="#ffb431"/>
      </g>
      <path id="Path_180" data-name="Path 180" d="M-501.435,441.65a5.977,5.977,0,0,0,7.933-2.755,5.977,5.977,0,0,0-2.756-7.933,5.977,5.977,0,0,0-7.933,2.756A5.977,5.977,0,0,0-501.435,441.65Z" transform="translate(588.068 -363.725)" fill="#ffb431"/>
      <path id="Path_181" data-name="Path 181" d="M-719.461,327.371c1.378,2.756,1.628,5.428.543,7.682a5.912,5.912,0,0,1-1,1.5h0a.5.5,0,0,1-.167.167l-.042.042a3.4,3.4,0,0,1-.376.334c-.083.084-.167.125-.209.209-2.171,1.837-9.1,6.137-23.339,2.171a1.349,1.349,0,0,0-.96,2.505c.042,0,.084.042.125.042,1.253.626,2.547,1.127,3.8,1.628a47.8,47.8,0,0,0,6.889,1.879c8.392,1.5,15.49-.334,17.87-5.3,1.8-3.758.543-8.475-2.965-13.026-.083-.125-.292,0-.209.125Z" transform="translate(799.789 -273.035)" fill="#ffb431"/>
      <g id="Group_317" data-name="Group 317" transform="translate(41.034 0)">
        <path id="Path_182" data-name="Path 182" d="M-794.623-113.038a5.931,5.931,0,0,0-6.346-5.469,5.931,5.931,0,0,0-5.469,6.346,5.931,5.931,0,0,0,6.346,5.469A5.931,5.931,0,0,0-794.623-113.038Z" transform="translate(812.082 118.525)" fill="#ffb431"/>
        <path id="Path_183" data-name="Path 183" d="M-852.611,1.468c1.712-2.547,3.883-4.133,6.388-4.342a6.514,6.514,0,0,1,1.8.125h0a.73.73,0,0,1,.209.042h.083a4.356,4.356,0,0,0,.5.125,2.636,2.636,0,0,0,.292.083c2.672.96,9.853,4.8,13.569,19.122a1.338,1.338,0,0,0,2.63-.417v-.125c-.083-1.419-.292-2.756-.5-4.092a47.87,47.87,0,0,0-1.8-6.931C-832.32-2.916-837.5-8.177-842.966-7.8c-4.133.292-7.6,3.8-9.811,9.06-.042.125.125.251.209.125Z" transform="translate(852.784 21.262)" fill="#ffb431"/>
      </g>
      <path id="Path_184" data-name="Path 184" d="M-847.777,244.149l7.766-10.438h4.342l-9.06,12.609-3.09-2.171Zm-.167,6.722-2.213,3.09-6.012-4.05v-4.592l3.841,2.589Z" transform="translate(896.792 -190.941)" fill="#00547f" fill-rule="evenodd"/>
      <path id="Path_185" data-name="Path 185" d="M-820.832,230.822l11.607-16.325,4.175-.042-14.488,21.585-9.812-6.638V224.81Z" transform="translate(873.229 -174.024)" fill="#00547f" fill-rule="evenodd"/>
    </g>
  </g>
</svg>
