<svg xmlns="http://www.w3.org/2000/svg" width="114.21" height="109.818" viewBox="0 0 114.21 109.818">
  <g id="Group_5932" data-name="Group 5932" transform="translate(-499 -877)">
    <path id="Polygon_2" data-name="Polygon 2" d="M59.658,0a11,11,0,0,1,9.52,5.489l15.632,27a11,11,0,0,1,0,11.023l-15.632,27A11,11,0,0,1,59.658,76H28.342a11,11,0,0,1-9.52-5.489l-15.632-27a11,11,0,0,1,0-11.023l15.632-27A11,11,0,0,1,28.342,0Z" transform="translate(537 877) rotate(30)" fill="#ffb431"/>
    <g id="Group_5153" data-name="Group 5153" transform="translate(459.065 959.322)">
      <g id="surface1" transform="translate(83.935 -43.322)">
        <path id="Path_135" data-name="Path 135" d="M126.379,158.457a5.938,5.938,0,1,0,5.938,5.938A5.945,5.945,0,0,0,126.379,158.457Zm3.525,4.82-4.254,4.254a.914.914,0,0,1-1.293,0l-1.626-1.626a.914.914,0,0,1,1.293-1.293l.979.979,3.608-3.607a.914.914,0,0,1,1.293,1.293Zm0,0" transform="translate(-113.11 -148.812)" fill="#fff"/>
        <path id="Path_136" data-name="Path 136" d="M26.507,8.455V8.43c-.014-.3-.023-.616-.028-.968a3.3,3.3,0,0,0-3.11-3.236A12.817,12.817,0,0,1,14.645.55L14.625.53a1.994,1.994,0,0,0-2.711,0l-.02.019A12.818,12.818,0,0,1,3.171,4.227,3.3,3.3,0,0,0,.061,7.462c-.005.35-.015.667-.028.968v.056c-.07,3.654-.156,8.2,1.365,12.328A15.694,15.694,0,0,0,5.161,26.68a19.7,19.7,0,0,0,7.368,4.358,2.283,2.283,0,0,0,.3.082,2.23,2.23,0,0,0,.877,0,2.289,2.289,0,0,0,.3-.083,19.708,19.708,0,0,0,7.36-4.36,15.716,15.716,0,0,0,3.765-5.866C26.663,16.671,26.577,12.115,26.507,8.455ZM13.269,23.348a7.767,7.767,0,1,1,7.767-7.767A7.775,7.775,0,0,1,13.269,23.348Zm0,0" transform="translate(0 0.001)" fill="#fff"/>
      </g>
    </g>
  </g>
</svg>
