<svg xmlns="http://www.w3.org/2000/svg" width="114.21" height="109.818" viewBox="0 0 114.21 109.818">
  <g id="Group_5931" data-name="Group 5931" transform="translate(-894 -863)">
    <path id="Polygon_3" data-name="Polygon 3" d="M59.658,0a11,11,0,0,1,9.52,5.489l15.632,27a11,11,0,0,1,0,11.023l-15.632,27A11,11,0,0,1,59.658,76H28.342a11,11,0,0,1-9.52-5.489l-15.632-27a11,11,0,0,1,0-11.023l15.632-27A11,11,0,0,1,28.342,0Z" transform="translate(932 863) rotate(30)" fill="#ffb431"/>
    <g id="share" transform="translate(939 904)">
      <path id="Path_33" data-name="Path 33" d="M321.959,19.645A3.645,3.645,0,1,1,318.313,16,3.645,3.645,0,0,1,321.959,19.645Zm0,0" transform="translate(-298.123 -15.159)" fill="#fff"/>
      <path id="Path_34" data-name="Path 34" d="M303.155,8.974a4.487,4.487,0,1,1,4.487-4.487A4.491,4.491,0,0,1,303.155,8.974Zm0-7.291a2.8,2.8,0,1,0,2.8,2.8,2.807,2.807,0,0,0-2.8-2.8Zm0,0" transform="translate(-282.965 0)" fill="#fff"/>
      <path id="Path_35" data-name="Path 35" d="M321.959,360.978a3.645,3.645,0,1,1-3.645-3.646A3.645,3.645,0,0,1,321.959,360.978Zm0,0" transform="translate(-298.123 -338.544)" fill="#fff"/>
      <path id="Path_36" data-name="Path 36" d="M303.155,350.306a4.487,4.487,0,1,1,4.487-4.487A4.491,4.491,0,0,1,303.155,350.306Zm0-7.291a2.8,2.8,0,1,0,2.8,2.8A2.807,2.807,0,0,0,303.155,343.015Zm0,0" transform="translate(-282.965 -323.385)" fill="#fff"/>
      <path id="Path_37" data-name="Path 37" d="M23.291,190.313a3.645,3.645,0,1,1-3.646-3.645A3.645,3.645,0,0,1,23.291,190.313Zm0,0" transform="translate(-15.159 -176.853)" fill="#fff"/>
      <path id="Path_38" data-name="Path 38" d="M4.487,179.641a4.487,4.487,0,1,1,4.487-4.487,4.491,4.491,0,0,1-4.487,4.487Zm0-7.291a2.8,2.8,0,1,0,2.8,2.8,2.807,2.807,0,0,0-2.8-2.8Zm0,0" transform="translate(0 -161.695)" fill="#fff"/>
      <path id="Path_39" data-name="Path 39" d="M115.471,98.393a1.122,1.122,0,0,1-.556-2.1l10.408-5.934a1.122,1.122,0,1,1,1.111,1.95l-10.408,5.934A1.114,1.114,0,0,1,115.471,98.393Zm0,0" transform="translate(-108.336 -85.471)" fill="#fff"/>
      <path id="Path_40" data-name="Path 40" d="M125.9,274.4a1.114,1.114,0,0,1-.554-.147l-10.408-5.934a1.122,1.122,0,0,1,1.11-1.95l10.408,5.934a1.122,1.122,0,0,1-.556,2.1Zm0,0" transform="translate(-108.358 -252.221)" fill="#fff"/>
    </g>
  </g>
</svg>
