<svg xmlns="http://www.w3.org/2000/svg" width="114.21" height="109.818" viewBox="0 0 114.21 109.818">
  <g id="Group_5934" data-name="Group 5934" transform="translate(-499 -1190)">
    <path id="Polygon_4" data-name="Polygon 4" d="M59.658,0a11,11,0,0,1,9.52,5.489l15.632,27a11,11,0,0,1,0,11.023l-15.632,27A11,11,0,0,1,59.658,76H28.342a11,11,0,0,1-9.52-5.489l-15.632-27a11,11,0,0,1,0-11.023l15.632-27A11,11,0,0,1,28.342,0Z" transform="translate(537 1190) rotate(30)" fill="#ffb431"/>
    <g id="message_3_" data-name="message (3)" transform="translate(541 1230.411)">
      <path id="Path_96" data-name="Path 96" d="M169.8,182H152.708a1.706,1.706,0,0,0-1.7,1.7v11.925a1.706,1.706,0,0,0,1.7,1.7h14.132l3.215,3.163a.853.853,0,0,0,1.449-.607V183.7A1.706,1.706,0,0,0,169.8,182Zm-2.612,11.868H155.263a.852.852,0,1,1,0-1.7h11.925a.852.852,0,0,1,0,1.7Zm-12.777-4.259a.852.852,0,0,1,.852-.852h8.518a.852.852,0,0,1,0,1.7h-8.518A.852.852,0,0,1,154.411,189.609Zm12.777-2.555H155.263a.852.852,0,1,1,0-1.7h11.925a.852.852,0,0,1,0,1.7Z" transform="translate(-142.429 -171.665)" fill="#fff"/>
      <path id="Path_97" data-name="Path 97" d="M20.5,8.631V1.7A1.706,1.706,0,0,0,18.8,0H1.708A1.706,1.706,0,0,0,0,1.7V17.887a.853.853,0,0,0,1.449.607l3.215-3.162H6.875V12.038a3.411,3.411,0,0,1,3.407-3.407Zm-4.259-.057a.852.852,0,1,1,.852-.852A.852.852,0,0,1,16.245,8.575ZM4.32,3.464H16.245a.852.852,0,1,1,0,1.7H4.32a.852.852,0,0,1,0-1.7Zm1.7,8.518H4.32a.852.852,0,0,1,0-1.7h1.7a.852.852,0,1,1,0,1.7ZM4.32,8.575a.852.852,0,0,1,0-1.7h8.518a.852.852,0,0,1,0,1.7Z" transform="translate(-0.004)" fill="#fff"/>
    </g>
  </g>
</svg>
